<?xml version="1.0"?><svg version="1.2" baseProfile="tiny-ps" viewBox="0 0 300 300" xmlns="http://www.w3.org/2000/svg" xmlns:xlink="http://www.w3.org/1999/xlink"><title>GOAT - Social Debate Platform</title><g><g fill="#fdfdfd" transform="matrix(.1 0 0 -.1 0 300)"><path d="M0 1500V0h3000v3000H0V1500z"/></g><g fill="#eaeaea" transform="matrix(.1 0 0 -.1 0 300)"><path d="M0 1508V16l14 19c7 11 17 36 21 55 8 38 62 179 75 195 4 6 13 28 20 50s25 65 40 96l26 55 13-4 13-4-6 19-7 20 42 79c23 44 50 86 60 95s16 18 13 21c-9 10 141 258 156 258 4 0 10 8 13 19l4 18 74-19c41-10 103-21 139-24l65-6 90 16 90 17 33 17c17 9 32 20 32 24 0 8-35 12-85 9-16-1-68 5-114 13l-83 15-21 18-20 18 8-14 8-14-9 5c-5 2-31 15-59 27-27 13-62 32-78 43l-27 20 6 10 7 11-12-8-13-7-61 65c-72 74-119 150-155 245l-25 67-5 125-4 125 27 88 28 89 49 75 48 74 12-7 11-7-7 12-7 11 53 51 53 51 70 39 70 39h53l4 11 4 11 49 9c28 6 95 10 150 10h100l60-16c75-20 194-77 219-104l19-21h-16c-10 0-17-4-17-10 0-5 4-10 9-10 6 0 13 5 16 10 3 6 9 10 13 10 9 0 82-67 82-76 0-3 11-15 25-26s25-25 25-33c0-7 4-15 8-17 13-5 58-90 71-133 31-101 45-117 56-65l6 29-9 33c-6 18-15 55-22 82l-11 49 13 9 13 8h139l43-16c24-9 43-21 43-26v-9l10 6 10 6 6-15c3-9 11-16 18-16 6 0 22-17 36-38 14-20 27-39 30-42s11-24 18-46c15-51 15-132 1-188l-11-43-36-42-37-42-18-3c-21-3-37-23-37-47 0-10 21-60 46-113l46-97-6-15-6-15 9 5 9 6 6-16c3-9 3-20 0-25l-5-9 13 2 13 3-3-17-3-18h9c5 0 22-28 37-63 61-140 77-173 91-200l16-28-3-52-4-52-21-40-22-40-21-3-21-3v-21l-67 4-68 4-45 21c-133 61-296 110-412 122l-86 10-84-9-83-9-61-20c-111-35-225-107-299-187-11-12-37-40-58-63l-38-41 14-6 14-5 48 25c26 15 54 26 62 26h14l-39-57c-75-111-101-177-127-323-8-41-14-103-14-137l-1-63h2330v3000H0V1508zm540 711v-10l10 6c6 3 10 8 10 11 0 2-4 4-10 4-5 0-10-5-10-11zm303-176c-26-5-31-23-8-23 9 0 30-8 48-17l32-17-87-7-87-7-74-36-74-35-38-42-38-42-28-62-28-63-7-64-6-64 16-63 16-64 30-52c16-28 38-60 49-69l21-19-6-9-5-8 8 2c4 2 38-17 76-42l67-44v-31l8 13 8 12 30-14c16-8 40-16 54-18l25-3v12c0 7-16 29-36 50s-44 53-53 71l-17 34 68 64 68 64 15-3 15-3-2-11-2-11 12 1c7 1 44-14 82-33l70-35 105-3 104-4 38 11c21 7 38 15 38 19 0 14-61 105-93 139-38 40-159 123-179 123-8 0-18 4-24 9-12 11-96 31-105 25l-8-4 6-38 5-37-15 26c-8 15-16 43-19 63l-4 37 12-5 13-5 4 12 4 12 89-1 89-1 55-22c30-12 72-36 94-52s44-29 48-29h8v29c0 16-7 46-15 67-70 176-196 284-355 308-81 12-95 14-117 9zm1057-383c0-5 5-10 11-10h10l-6 10c-3 6-8 10-11 10-2 0-4-4-4-10zM833 1243c-15-5-17-23-4-23 5 0 11 7 15 15 3 8 4 15 3 14-1 0-8-3-14-6z"/></g><g fill="#cecece" transform="matrix(.1 0 0 -.1 0 300)"><path d="M1 1513 2 25l10 30c103 295 267 632 429 875l57 87 59-20 58-21h270l54 19 53 20-1 10-1 10-102 7-103 6-55 20c-90 32-154 68-222 126l-64 54-51 73-50 74-26 65-26 65-12 87-13 87 11 84c38 281 230 498 501 568l75 19h172l78-20 79-20 71-37 72-37 86-86 85-85 41-85c22-47 43-97 47-112l6-28h22l-7 62c-7 59-15 93-30 129l-6 17 32 11c18 6 52 11 77 11h45l56-17 56-18 51-50 51-51 21-57 22-58v-92l-17-54-17-55-41-42c-22-23-51-49-63-57l-24-14 110-240c60-132 122-267 137-300l28-60 1-55 1-55-27-45-26-46-28-14-27-15-51 2-51 2-75 31c-41 18-118 47-171 65l-96 34-116 17-116 18-103-17-103-17-72-35c-40-18-94-49-120-67-53-36-187-167-179-175 2-3 35 9 71 26 37 18 71 31 77 29l9-3-21-25c-12-14-41-54-64-90l-43-65-26-70c-39-106-64-256-58-342l1-13h2320v3000H0l1-1487zm849 522c0-3 22-16 49-30 27-13 53-30 56-36l7-10-69 6-70 7-54-11c-30-6-78-23-108-39l-53-27-45-49c-53-59-81-117-95-198l-10-59 11-59c23-117 72-191 179-274 84-64 192-115 192-90 0 3-20 28-44 55s-49 62-54 77l-10 29 78 71 78 71 13-15c21-26 96-65 161-85l62-18 105 10c58 6 107 12 108 13 8 7-41 80-85 128l-55 58-66 38c-36 20-88 45-116 54l-50 17-7-7-7-7 10-45c6-25 15-53 20-62l9-18h-8c-4 0-20 24-34 54l-26 53-7 46-7 45 34 8c18 4 67 7 110 6l76-2 55-20c31-12 72-32 92-46 21-14 40-22 43-19 7 7-12 62-46 135l-26 55-58 57-58 58-48 24c-44 22-102 37-194 50-21 2-38 3-38 1z"/></g><g fill="#c8c8c8" transform="matrix(.1 0 0 -.1 0 300)"><path d="M0 1518 1 35l38 100c100 263 193 457 326 680 39 64 122 195 128 201 2 2 32-6 67-17l64-20 91-6 91-6 76 17c41 9 83 23 93 30l18 13-83 7c-121 10-164 21-266 71l-92 44-56 52c-110 100-182 225-211 364l-15 74v64c0 179 71 350 199 477l56 56 73 43 72 43 82 24 82 24h216l93-30 94-30 64-41 64-42 58-60 58-60 36-64c19-35 44-87 55-116s24-56 30-62l10-10-7 60c-4 33-14 80-21 105l-14 45 17 13 17 12h135l55-20 54-21 39-37 39-38 24-50 24-49 4-76 4-76-27-57-27-56-53-46-52-46 28-59c16-33 29-61 29-64 0-2 20-46 44-98 24-51 73-156 108-233l63-139V805l-23-37-23-37-35-22-35-21-122-3-122-4 25 8 25 8-18 8-18 8-24-13-24-13-28 8c-15 4-43 8-60 8-39 1-42 9-8 27 32 17 32 26-2 38l-28 10 30 2 30 1-34 14c-18 8-38 15-43 15h-10l13-16 13-16-35 4-34 3 3 17 3 18h-16c-8 0-15-4-15-10v-9l-12 3c-7 3-32 7-55 10l-43 6v-60h-61l7-11 7-12-14 5c-8 3-15 10-15 16-1 7-2 15-3 20l-1 7-47-2-48-2 40 13 40 14-3 11c-1 6 3 11 9 11h10l-6 10c-9 14-36 12-70-6l-30-15-35 5c-19 2-27 2-17 0 9-3 17-10 17-16v-11l-35 6-35 6-62-32c-65-34-171-107-184-128l-7-12 16 6 16 6-6-15-5-15-19 6-19 6v-10c0-6-6-11-14-11s-16-7-20-15l-5-15h13c8 0 17 7 20 16l6 16 13-5c6-2 21 0 32 6s33 11 48 13l28 2 25-25 24-24v-41l-12 4c-7 3-13 12-13 21s-10 25-22 37l-23 21v-12c0-6-10-20-22-30-11-11-18-19-15-19 4 0-10-16-29-35-19-20-42-52-51-72l-15-37 11-4c6-2 11-12 11-23v-19h19c26 0 51-10 51-21 0-12-37-11-45 1-3 6-15 10-25 10h-19l-6-21-7-20-11 4-12 4-13-26c-7-14-12-34-11-46 1-11 1-38 0-60l-1-40-10 15-9 14-7-17-6-17 12-14 11-15-9-33c-6-18-13-41-17-50l-7-18h22v18c0 9 5 24 11 32l10 15-6-42-7-43h16c9 0 16 5 16 10 0 6 5 10 11 10h10l-6-10-6-10h2251v3000H0V1518zm1435-728 6-10h-56l15 10c19 12 27 12 35 0zm-345-7c0-9-48-33-64-33-15 1 36 40 52 40 6 0 12-3 12-7zm104-18 20-15-7-6-7-7-14 12-15 13-11-7c-5-3-10-10-10-16v-9h55l-14-9-14-9 7-11c4-6 14-11 22-11h14v31l10-6c16-10 12-21-13-32l-23-11-17 13c-9 6-14 14-11 17 3 4 1 9-5 12l-10 6 4-30 4-30h-63l12-12 12-12-16-17-15-17-19 5-19 5-20-32-19-33 5-13 5-14-16 6c-9 3-16 10-16 15 0 17 45 79 58 79h12v40h20v81l13 14c12 11 37 20 72 23 6 1 19-5 29-13zm306 5c0-5-7-10-15-10s-15 5-15 10c0 6 7 10 15 10s15-4 15-10zm-235-20-20-8 34-14 33-15-18-7-17-7-6 9c-3 5-14 12-25 15l-18 7 12 15c7 8 20 15 29 14h16l-20-9zm205-4c14-3 42-8 63-11l37-6v-19h-38l-4 12-4 12-59-12-59-12-10 10-10 10h30l29 1-30 14-30 15 30-4c17-3 41-7 55-10zm125 4c-3-5-11-10-16-10h-10l6 10c3 6 11 10 16 10h10l-6-10zm-221-9 6-9-16-6c-20-8-29-1-19 13 8 13 22 14 29 2zm-424-41c0-5-4-10-10-10-5 0-10 5-10 10 0 6 5 10 10 10 6 0 10-4 10-10zm-30-24c0-3-4-7-9-11l-10-5-6 10-6 10h15c9 0 16-2 16-4zm70-25c0-5-7-12-16-15l-17-6 13 15c14 17 20 19 20 6zm30-15c0-2-7-17-15-32-16-30-19-25-9 14 5 18 24 33 24 18zm385-86-6-10h59l8-42c4-24 7-49 5-55l-2-13h21v90h30l6-25c3-13 4-30 1-37l-5-13-1 23-1 23-10-6-10-6v-62l-14-11c-8-6-17-26-21-43l-7-33h21l-5 15-6 15h7c4 0 14-8 21-17l13-18 1 18v17h10c6 0 10-4 10-9s7-11 15-15c20-7 19-4-5 24l-20 23v47h20l-6-27-7-26 17 6 17 7-7-11-6-11 28-30c16-17 23-28 17-24l-13 7v-8c1-4 10-19 21-32l20-25 10 15c5 7 9 11 9 6 0-4-5-16-12-26l-12-20-10 21c-6 12-17 23-23 26l-13 4v-32l13-1 12-1-12-5c-7-2-13-12-13-20v-16l63 6 63 6 14-10 15-9-15-10c-8-5-19-10-23-10h-8l6 10 6 10h-121v-40l13-1c6-1 26-3 42-4l30-2 43 19 44 19 14-12 15-12-15-9c-9-5-16-13-16-18 0-16 22-11 35 7l12 16 11-7 11-7-6-17c-4-9-13-22-21-28l-15-11 12-7 12-8 14 18c8 11 15 25 15 32 0 6 5 12 10 12h10v-18c0-10-5-23-12-30l-12-12 8-7 8-8 13 19c8 10 16 23 17 28l4 10 37-21 37-20 15 5 15 6V70h-58l-12 15c-13 16-30 20-30 7 0-4 13-15 29-25l28-16 7 6 6 6V52c0-6-5-14-12-18l-12-8-4 12c-2 7-10 12-17 12s-16 7-19 16l-6 15-10-6c-18-11-11-22 24-39l34-16h113l32 15 32 16-20-17-20-16 27 4 27 5-5-8-5-9h-273l12 12c16 16 15 28-3 28-8 0-15 4-15 9 0 9-52 22-59 15-3-2 4-11 15-19l19-14-512-1H770l-1 28c-1 15-1 34 0 42l2 15-10-15-11-15v22c0 12 5 25 10 28 6 4 10 12 9 18-1 7-1 24 0 40l1 27h90v-30h120v30h80v-30h110v15c0 8 5 15 10 15 6 0 10 5 10 10v10h-110v140h-10c-5 0-10 5-10 11 0 14 26 40 33 33 3-4 12 0 20 7l14 13-4 17-4 16 25 16 25 17-6-15-5-16 12 3 13 3 4-12 5-13h-15c-9 0-17 6-20 13l-4 12-9-9-9-9 13-4 12-5 1-26 1-27 5 18c2 9 9 17 14 17h10l-6-10-6-10h10c6 0 17 12 25 28l15 27 1-22v-23h30v15c0 8 5 15 10 15 6 0 10-6 10-14s7-16 15-20l15-5v14c0 8 5 15 10 15h10v80h50v10c0 6 7 10 16 10h15l-6-10zm-135-10c0-5-2-10-4-10-3 0-8 5-11 10l-6 10h10c6 0 11-4 11-10zm211-27-10-18-1 21c0 11 3 24 7 28l8 7 3-10c2-6-1-18-7-28zm-261 18c0-6-4-13-10-16l-10-6v15c0 9 5 16 10 16 6 0 10-4 10-9zm-226-20 6-9-16-6c-9-4-19-4-22-1s1 5 9 5h14l-15 10-15 10h17c9 0 19-4 22-9zm-124-23v-10l-15 6-15 5v-14c0-8-4-15-8-15h-9l2-22 2-23 28-3 29-4-12 14-12 14 49 3 49 2-5-20c-3-12-2-28 1-38l7-17 25 29 24 28 7-7 7-6-23-16-23-16 5-18 4-17-51 5c-59 5-57 4-59 30l-1 20-17-9c-24-12-29-11-29 6v15h-23l6 35c3 19 12 41 19 48l13 14 12-4c7-3 13-10 13-15zm225-17c-3-6-13-11-21-11h-14v-31l-12 7-11 7 5-14 6-15-18-24-19-25 11-12 10-13h-10c-6 0-14 5-17 10l-7 11 17 25 16 25-6 8-5 9 37 31c35 29 52 34 38 12zm-35-108v-28l-10 15c-13 20-13 40 0 40h10v-27zm450 12c0-8-4-15-10-15-5 0-10 7-10 15s5 15 10 15c6 0 10-7 10-15zM747 258l-5-13-1 19c-1 11 2 17 5 13 3-3 4-12 1-19zm3-204V30h-20v28c0 15-3 38-6 52l-6 25 16-29c9-15 16-39 16-52zm1255 6 6-9 17 6 17 7-15-18-14-18-4 11-4 11h-39l6 10c8 13 22 13 30 0zm-982-47c-29-2-77-2-105 0l-53 3h210l-52-3zm310 0c-29-2-78-2-110 0l-58 3h220l-52-3zm310 0c-29-2-78-2-110 0l-58 3h220l-52-3zm574 1c-3-3-12-4-19-1l-13 5 19 1c11 1 17-2 13-5zM1100 740l-15-10h10c6 0 17 5 25 10l15 10h-10c-5 0-17-5-25-10zm-25-110-6-10h8c4 0 15 5 23 10l15 10h-17c-9 0-20-4-23-10zm191-402c8-27 24-40 42-33 8 3 48 5 90 5h77l12 25 11 25h-239l7-22zm452-61c-7-8-20-16-28-19l-15-5 22-12 23-11-6 15-6 15h15c9 0 18 4 22 9l5 10-9 5-9 6-14-13zm-258-43v-15l10 6 10 6-5 10c-9 14-15 11-15-7zm-190-4c0-5 7-10 15-10s15 5 15 10c0 6-7 10-15 10s-15-4-15-10zM900 2022c0-12 24-22 51-22h19v21l-20-6-21-7-14 12-15 12v-10zm71-26-11-13 39 1 40 1-11 12c-14 17-43 16-57-1zm86-23c-4-3-7-17-7-30v-24l-32 3-33 3 2 15 3 16-40-4-40-4 5-8 5-7 27 5 28 5-11-12-11-12-37 6-36 7v28l-42-1-43-1 15-5c8-2 22-7 30-10l15-5-20-8-20-8-20 12-20 11-34-3-35-4 15-9 14-9h-65l1-7c1-5 1-12 0-18l-1-10-9 14-9 14-27-22-28-21h23v-15c0-8-4-15-10-15-5 0-10 5-10 10 0 6-5 10-10 10h-10l5-22 6-23-21-13c-24-15-26-5-3 20l16 18h-10c-9 0-73-91-73-104 0-18 17-2 28 26 6 17 14 29 18 26 3-4-2-22-11-42l-17-36 6-16 6-16 15 12 15 12v-8c0-5 5-2 10 6l10 15v-34l14 5 14 6-2-14c-8-48-36-81-36-43 0 8 5 15 10 15 6 0 10 5 10 11v11l-14-5-15-6-4 12-4 12-8-7-7-7 11-32 11-31-15 12c-8 7-15 19-15 26s-9 28-20 46l-20 33v-55h-20l1-37 1-38 7 30 7 30 17-26c9-14 19-39 23-56l6-31-11-6-11-7v81h-20v-61l-10 6-10 6v-18c0-10 7-28 15-39 8-12 12-24 10-26-3-3 2-22 11-43l16-39 15 33c20 40 30 32 13-10l-13-31 12-8c7-4 12-10 12-14-3-19 1-24 17-22l17 1v-31l50-47 50-47 61-30c93-46 110-39 48 21-20 18-45 52-56 74l-21 40 77 71 78 71 56-37c67-45 137-70 192-70h40v32l60-4 60-3 4 15 4 15 1-17c1-20 21-25 21-5 0 6-7 20-14 30l-14 18-7-10-6-11h-119v-20h-39l6 17 6 16-23-6-23-6 15 15 14 15 17-7c9-3 15-9 13-13l-5-7 62 4c34 2 66 8 71 12l9 9-6 15-6 16-16-6-15-6 5 15 6 14-41 33c-22 18-43 30-46 27-9-9 6-27 22-27 8 0 14-4 14-10 0-5 7-10 15-10s15-4 15-10c0-16-27-12-34 5l-5 15-68 1c-37 0-62 3-55 6 14 5 17 33 3 33-5 0-11-6-14-12l-4-13-23 23-22 23-11-4c-6-2-12-10-15-18l-4-14 11 15 10 14 7-7 7-7-12-14-13-15 7-11c3-5 13-10 21-10h15l-7-11-6-11-28 27-29 27-20 49c-12 27-24 68-27 92l-6 44 28 8c16 4 78 8 137 10 59 1 111 6 115 9l6 7-9 7c-6 4-10 16-10 27v20l-20 4-19 3 13-16 14-17-41 3-42 3v16l-20-6-20-6v21h-50v22l23-5c12-3 33-8 47-12l25-6-17 11c-22 14-23 30-3 30h15v22l31-7 31-7 9 13 8 13 8-7 7-8-12-19-12-20h30v-30h22l-5-19-5-20 22-4 21-4-34-13-33-13 52-24 53-24 7 11 7 12 6-23c4-13 9-21 12-18s-2 23-10 43l-16 37-9-6-10-6 5-10 6-9h-20c-11 0-22 4-26 9l-5 10 19 6c11 3 22 12 24 20l6 14-15 11c-8 7-14 19-14 27v15l-13-11-14-11-6 7c-4 3-7 13-7 21v14l15-6c8-3 15-3 15-1 0 8-102 99-131 117-33 20-33 20-42 11zm83-66v-9l-16 13-16 13-18-12c-23-14-32-5-17 18l11 19 28-17c15-9 28-20 28-25zm-260 3v-10l-27 1h-28l20 9c27 12 35 12 35 0zm-107-7c-7-2-19-2-25 0l-13 5h50l-12-5zm193 0c-4-5-12-9-17-9-5-1-13-2-18-3l-9-1 5-20 5-20h-19c-10 0-24-5-31-12l-12-12-18 18-17 18 25-2c14-1 31-2 39-1l13 1-6 17-7 16 13 9c7 4 24 8 37 8h24l-7-7zm-285-23h9v-29c0-17-4-32-8-35l-9-5-16 35c-21 43-21 48-1 40 9-3 20-6 25-6zm56 4c-3-3-12-4-19-1l-13 5 19 1c11 1 17-2 13-5zm263-4v-10h41l-6-10-6-9-21 8c-12 4-24 13-26 19l-4 12h11c6 0 11-4 11-10zm-190-8c0-4-9-16-21-25l-21-18-16 7-17 7 20 5c11 2 24 10 28 18 9 15 27 19 27 6zm390-13c0-5-4-9-10-9-5 0-10 7-10 16v15l10-6c6-3 10-10 10-16zm-222-11c-2-6-10-14-16-16l-12-4v32h32l-4-12zm-148-13c0-8-4-15-10-15-5 0-10 7-10 15s5 15 10 15c6 0 10-7 10-15zm-190-19c0-8 10-22 22-30l22-16h-12c-7 0-24 7-37 16l-24 16 6 14c7 18 23 18 23 0zm83-13 7-6-11-14c-16-19-29-16-29 7v20h13c8 0 17-3 20-7zm-138-23-6-10h30l-5-15c-4-8-10-15-14-15-10 0-20 37-12 44 9 10 14 7 7-4zm555-16c0-2-7-4-15-4s-15 4-15 10v9l15-5c8-4 15-8 15-10zm-471-24c-7-5-18-6-26-3l-13 5v-32h-30l15 24 15 23 26-5 26-5-13-7zm-99-5c0-8-4-15-10-15-5 0-10 7-10 15s5 15 10 15c6 0 10-7 10-15zm3-163c-7-27-23-29-23-3v19l13 5c16 6 17 5 10-21zm484-67c27-43 43-56 43-35 0 6 5 10 10 10 19 0 10-17-16-28l-25-12 6 10 6 10h-10c-6 0-11 5-11 10 0 6-11 23-25 38-26 28-31 42-16 42 5 0 22-20 38-45zm-513-7c-8-13-9-16-12-47l-2-15-10 10-10 10 12 37 12 37 9-9 9-9-8-14zm651-18 6-10h-15c-9 0-16 5-16 10 0 6 4 10 9 10 6 0 13-4 16-10zm-618-112-5-13-1 19c-1 11 2 17 5 13 3-3 4-12 1-19zm405 273-14-8 4-19 3-19 29-3 28-4-7 11-6 11h20c11 0 23-4 26-10l6-10h-15c-18 0-21-16-6-25l10-6v20l15-5 15-6v26l12-12c7-7 18-12 26-12h14l-11 14c-7 8-23 17-36 20-14 4-25 11-25 16 0 14-26 12-50-2l-20-12-11 11-12 12 24 10 24 10h-15c-8 0-21-3-28-8zm443-811c3-5 16-10 28-9h22l-20 9c-11 5-24 9-28 9l-8 1 6-10zm215-57c0-5 5-14 12-21l12-12h-24v-30l26-6 25-7 12 12 11 11h67l5-15 6-15h59l-6 11c-4 5-12 8-18 6-7-2-23 4-36 14l-23 19-24-6-24-6v32l-25-6-26-6 3 13 3 13-17 4-18 3v-8zm57-49c-3-3-12-4-19-1l-13 5 19 1c11 1 17-2 13-5zM757 383c-4-3-7-12-7-19v-13l15 5c8 4 15 12 15 20 0 15-12 19-23 7z"/></g><g fill="#818181" transform="matrix(.1 0 0 -.1 0 300)"><path d="M1 1523 2 45l10 30c40 115 134 336 204 475 74 148 214 388 261 448l18 22 75-19c41-10 102-22 135-25l60-7 61 10c33 5 80 14 102 21l42 11v19h-52c-29 0-84 7-123 15l-70 15-80 39-80 38-52 43c-104 85-188 215-225 348l-21 77v200l17 60c23 81 53 149 97 215l37 56 65 60c78 73 146 114 247 147l75 25 76 7 75 7 80-12c99-15 183-46 268-100l65-41 66-71 65-70 38-77c21-42 42-87 46-101l9-25 4 24 5 23-18 70-17 70 14 9c8 4 36 11 64 14l50 6 50-11c100-22 167-78 211-174l27-59-1-74-1-74-20-42c-22-46-71-103-110-128l-24-15 133-294c73-162 137-311 141-330l8-35-14-51-15-52-40-36c-23-20-53-42-68-48l-27-11-95 1h-95l-149 21c-175 25-218 26-309 6l-69-14-55-28-55-28-50-54c-49-54-105-148-94-159 4-3 19 6 34 19 48 44 101 80 155 104l52 24 70 11 70 11 45-6c25-3 66-10 91-16l46-10 6-58 5-58 26-56 27-56 65-60 65-60 82-39c45-22 107-50 137-61 55-20 250-68 366-90l60-11h624v3000H0l1-1477zm803 283c-118-38-204-140-225-264l-9-57 11-60 11-59 24-42c42-72 149-153 203-154h14l-40 43c-21 23-45 56-52 74l-13 32 14 18c23 31 134 133 145 133 6 0 16-7 24-16 7-9 43-31 80-49l66-34 52-7c28-4 51-4 51 0 0 3-19 18-42 32-60 38-136 112-163 159-13 22-31 67-39 100l-16 59 15 16 16 15h179v7c0 4-24 20-52 35l-53 26-80 4-80 3-41-14z"/></g><g fill="#303030" transform="matrix(.1 0 0 -.1 0 300)"><path d="M0 1538 1 75l59 148c101 255 277 591 398 760l34 48 17-5c9-3 43-13 76-22l60-17h220l45 13 45 13-90 13-90 12-58 20c-32 12-83 35-115 52l-57 30-66 63c-92 88-126 137-176 257-31 74-43 146-43 249v86l15 63c8 35 30 96 48 135l34 72 50 62c65 81 131 134 223 182l75 38 75 19 75 18h170l75-18 75-19 79-40 79-41 59-55c69-64 138-156 172-232l25-54v16c1 9-6 38-14 65s-15 55-15 62v12l27 11c15 6 52 11 83 11l55 1 57-17 56-16 50-45 49-44 23-53 23-53 5-62 5-62-12-48-12-47-34-46c-19-25-48-54-64-65-17-11-31-23-31-26 0-4 59-136 131-295l132-289 4-45 5-45-11-40-11-41-32-33c-17-18-50-42-72-53l-40-21-62-5-61-4-134 20c-74 12-168 24-209 27l-75 6-75-11-75-10-71-36-72-36-25-26c-31-33-98-134-93-140 3-2 27 14 55 36l50 40 78 33 78 32 100 1h100l53-18 53-18-6-19-6-18 11-58 10-57 35-53 35-53 57-44c116-91 308-165 553-213l135-26 308-4 307-5v3002H0V1538zm790 254-45-17-62-61-61-60-21-68c-26-84-26-117-1-197l19-64 31-38c35-41 102-90 140-102l25-7-26 28c-33 35-69 94-69 112 0 15 150 161 166 162 6 0 17-7 24-15 30-37 171-100 207-93l17 3-45 29c-59 38-122 109-154 174l-26 53-6 48-6 49 23 12 23 12 71 7 71 7-58 22-58 22-67-1h-67l-45-17z"/></g></g></svg>